<?xml version="1.0" encoding="UTF-8" standalone="no"?>
<!-- Created with Inkscape (http://www.inkscape.org/) -->

<svg
   xmlns:dc="http://purl.org/dc/elements/1.1/"
   xmlns:cc="http://creativecommons.org/ns#"
   xmlns:rdf="http://www.w3.org/1999/02/22-rdf-syntax-ns#"
   xmlns:svg="http://www.w3.org/2000/svg"
   xmlns="http://www.w3.org/2000/svg"
   xmlns:sodipodi="http://sodipodi.sourceforge.net/DTD/sodipodi-0.dtd"
   xmlns:inkscape="http://www.inkscape.org/namespaces/inkscape"
   width="210mm"
   height="297mm"
   viewBox="0 0 744.09448819 1052.3622047"
   id="svg2"
   version="1.1"
   inkscape:version="0.91 r13725"
   sodipodi:docname="assault.svg">
  <defs
     id="defs4" />
  <sodipodi:namedview
     id="base"
     pagecolor="#ffffff"
     bordercolor="#666666"
     borderopacity="1.0"
     inkscape:pageopacity="0.0"
     inkscape:pageshadow="2"
     inkscape:zoom="10.24"
     inkscape:cx="-0.3509274"
     inkscape:cy="1048.8382"
     inkscape:document-units="px"
     inkscape:current-layer="layer1"
     showgrid="false"
     inkscape:window-width="1829"
     inkscape:window-height="1057"
     inkscape:window-x="83"
     inkscape:window-y="-8"
     inkscape:window-maximized="1"
     showborder="true"
     showguides="false">
    <inkscape:grid
       type="xygrid"
       id="grid4149" />
  </sodipodi:namedview>
  <metadata
     id="metadata7">
    <rdf:RDF>
      <cc:Work
         rdf:about="">
        <dc:format>image/svg+xml</dc:format>
        <dc:type
           rdf:resource="http://purl.org/dc/dcmitype/StillImage" />
        <dc:title></dc:title>
      </cc:Work>
    </rdf:RDF>
  </metadata>
  <g
     inkscape:label="Layer 1"
     inkscape:groupmode="layer"
     id="layer1">
    <path
       style="fill:none;fill-rule:evenodd;stroke:#000000;stroke-width:1.008;stroke-linecap:round;stroke-linejoin:round;stroke-opacity:1;stroke-miterlimit:4;stroke-dasharray:none"
       d="m -1.8054554,14.041255 -2.3427169,-0.3943 -1.7878633,-1.3803 -3.3907784,-2.6292039 -2.712624,-3.8779003 3.8839872,-0.1316 -5.4869032,-8.0846 6.6582569,2.49779978 -2.7742688,-10.45089558 7.2131083,7.6900958 2.342718,-12.2254958 2.5276755,12.0283958 7.5213561,-7.4929958 -3.2058283,10.18799564 6.9048563,-2.76069984 -5.486891,7.6902 -0.7398092,0.9202 5.1169932,-0.065 -1.787863,2.8263 -2.034467,2.7606032 -4.0689325,2.234801 -3.3291329,0.5259 -0.2465947,-5.2584042 1.9728128,-1.709 0.1849576,-2.7605 -0.2466037,-1.446 -2.8359255,-0.5916 -2.2194156,0.8544 c 0,0 -0.7398122,2.1034 -0.7398122,2.4978 0,0.3943 0.3699061,1.8404 0.6165099,2.1033 0.2465937,0.2629 0.9247507,0.9202 0.9247507,0.9202 l 0.4932065,4.1410042 -0.5548537,1.5775 z"
       id="path4147"
       inkscape:connector-curvature="0" />
    <path
       style="fill:none;fill-rule:evenodd;stroke:#000000;stroke-width:1px;stroke-linecap:round;stroke-linejoin:round;stroke-opacity:1"
       d="m -11.71875,-14.33702 1.8554687,-1.5625 2.8320313,-1.367187 2.9296875,-0.78125 3.3203125,-0.390625 4.1992188,0 3.125,0.976562 4.2968752,2.34375 L 12.5,-13.946395 0.09765625,-40.606551 Z"
       id="path4157"
       inkscape:connector-curvature="0" />
  </g>
</svg>
